<?xml version="1.0" encoding="utf-8"?>
<!-- Generator: Adobe Illustrator 28.3.0, SVG Export Plug-In . SVG Version: 6.00 Build 0)  -->
<svg version="1.1" id="Layer_1" xmlns="http://www.w3.org/2000/svg" xmlns:xlink="http://www.w3.org/1999/xlink" x="0px" y="0px"
	 viewBox="0 0 1450 1450" style="enable-background:new 0 0 1450 1450;" xml:space="preserve">
<style type="text/css">
	.st0{fill-rule:evenodd;clip-rule:evenodd;fill:#231F20;stroke:#000000;stroke-width:8;stroke-miterlimit:10;}
	.st1{fill-rule:evenodd;clip-rule:evenodd;fill:#231F20;}
	.st2{fill-rule:evenodd;clip-rule:evenodd;fill:#FEFEFE;stroke:#000000;stroke-width:8;stroke-miterlimit:10;}
	.st3{fill-rule:evenodd;clip-rule:evenodd;fill:#FEFFFE;}
	.st4{fill-rule:evenodd;clip-rule:evenodd;fill:#FEFEFE;}
</style>
<circle class="st0" cx="724.9" cy="724.9" r="713.9"/>
<g>
	<path class="st1" d="M1338.9,382.4"/>
	<path class="st1" d="M1336.5,1095.6c-0.5,0.4-1.1,0.7-1.8,0.8c-0.7,0.1-1.4-0.2-2-0.6c-16.6-13.4-34.1-25.4-52.6-36.1
		c-0.8-0.5-1.3-1.3-1.4-2.2c-4.4-49.4-30.9-79.1-79.7-89c-0.2,0-0.4-0.1-0.6-0.1c-59.9-0.5-119.8-1-179.6-1.5c-1.9-1.9-3.1-3-5-4.9
		c-0.6-15.6-0.9-31.3-0.7-46.9c0-1.6,1.3-2.8,2.9-2.8c32.4,0.4,64.8-0.3,97.1-2.3c0.2,0,0.5-0.1,0.7-0.1
		c41.5-12.6,66.1-40.1,73.7-82.7c0-0.2,0-0.3,0-0.5c1-104.6,1-209.3,0-313.9c0-0.1,0-0.3,0-0.4c-7.5-51.2-36.8-80.5-88-88.1
		c-0.2,0-0.3,0-0.5,0c-73.1,1.9-146.1,1.9-218.8,0c-1.2,0-2.3-0.8-2.6-2c-0.7-2.2,0-4.3,2.1-6c0.2-0.2,0.5-0.3,0.8-0.5
		c31.8-12.4,42.4-34.9,31.9-67.5c-0.1-0.3-0.2-0.5-0.4-0.7c-2.4-3.4-4.4-7.1-6.2-10.9c-0.2-0.5-0.6-0.9-1-1.2
		c-7-4.5-13.8-9.2-20.5-14.1c-0.4-0.3-0.8-0.4-1.2-0.5c-10.1-1.8-20.3-1.8-30.4,0c-0.3,0-0.5,0.1-0.8,0.3
		c-26.3,12.6-36.7,33.4-31.1,62.3c0.1,0.3,0.2,0.6,0.3,0.8c2.9,5.3,5.4,10.8,7.5,16.2c0.3,0.8,1,1.4,1.9,1.7
		c4.1,1.3,7.5,3.7,10.2,7.3c0.3,0.3,0.6,0.6,0.9,0.8c4.2,2.3,8.7,4,13.3,5.4c0.8,0.2,1.4,0.8,1.8,1.5c1,2.1,1.1,4.1,0.2,6.2
		c-0.4,1-1.4,1.6-2.5,1.6c-72.9,1.1-145.8,0.9-218.9-0.8c-0.2,0-0.3,0-0.5,0c-51.9,7.8-81.3,37.7-88,89.6c0,0.1,0,0.2,0,0.4
		c-1,103.2-1,206.3,0,309.5c0,0.1,0,0.2,0,0.3c4.2,39,24.4,66.1,60.5,81.4c0.1,0,0.2,0.1,0.3,0.1c10.6,3.5,21.6,5.5,32.8,5.9
		c26,0.7,52,1,78,0.8c1.5,0,2.8,1.2,2.9,2.8c0.3,16.5-0.1,32.9-1.4,49.2c-0.1,1.5-1.3,2.6-2.8,2.6c-63.9,0.1-127.8,1.1-191.6,3
		c-0.2,0-0.5,0-0.7,0.1c-29.7,8.3-50.2,26.6-61.4,55.1c-0.3,0.7-0.8,1.2-1.5,1.6c-2.1,1-4.3,1.1-6.6,0.3c-0.3-0.1-0.6-0.3-0.9-0.5
		C386.6,971.6,345.7,901,331.7,814.6c-0.2-1.5,0.7-2.9,2.1-3.2c25.9-6.2,37.6-22.9,34.9-50.2c0-0.1,0-0.2,0-0.2
		c-6.3-35.7-11.9-71.5-16.7-107.3c-0.2-1.6,0.9-3.2,2.6-3.3c1.1-0.1,2.2-0.2,3.3-0.5c0.8-0.2,1.5-0.8,1.9-1.6
		c0.4-0.9,0.7-1.8,0.8-2.8c0-0.3,0-0.5,0-0.8c-2.4-15.8-5-31.6-8-47.3c-0.1-0.6-0.4-1.2-0.9-1.6c-1.6-1.3-3.4-2.1-5.6-2.3
		c-0.3,0-0.6,0-0.8,0c-5.8,1-11.5,1.8-17.3,2.5c-1.8,0.2-3.5-1.4-3.2-3.2c0.1-0.6,0.3-1.2,0.5-1.8c0.1-0.4,0.4-0.8,0.7-1.1
		c29.3-30.5,39.1-66.7,29.5-108.6c0-0.1-0.1-0.3-0.1-0.4c-0.7-1.9-1.5-3.7-2.6-5.3c-4.8,0.9-5.4,1-10.2,1.9
		c-12.2,50.1-43.5,81.5-94,94.1c-0.1,0-0.2,0.1-0.4,0.1c-39.3,5.4-73.6-5.1-102.9-31.3c-0.1-0.1-0.2-0.2-0.3-0.3
		c-8.6-10.4-17.4-20.6-26.3-30.6c-0.8-0.9-2.1-1.2-3.2-0.8c0,0,0,0,0,0c-1.1,0.4-1.8,1.5-1.8,2.7c0,46.9,20.9,81.5,62.6,103.9
		c0.6,0.3,1.2,0.9,1.4,1.6c0.2,0.8,0.4,1.7,0.4,2.5c0.1,1.4-0.9,2.6-2.3,2.9c-6.4,1.2-12.9,2.3-19.4,3.2c-0.5,0.1-1.1,0.3-1.5,0.7
		c-0.7,0.6-1.2,1.3-1.7,2.1c-0.4,0.7-0.6,1.5-0.4,2.2c3.6,15.1,6.2,30.5,7.9,46c0.1,0.5,0.3,1.1,0.6,1.5c2.3,2.6,5.1,4.1,8.6,4.5
		c1.2,0.1,2.3,1,2.5,2.2c6.3,29.1,11.3,58.6,15.2,88.3c0,0.1,0,0.1,0,0.2c2.2,10.5,4.7,20.8,7.4,31.1c0,0.1,0.1,0.3,0.1,0.4
		c4.5,11.3,12.6,18.4,24.4,21.4c0.2,0,0.4,0.1,0.6,0.1c6.2,0.4,12.4,0.9,18.6,1.3c1.2,0.1,2.2,0.9,2.5,2.1
		c5.3,20.3,10.3,40.8,15.2,61.5c0,0.1,0.1,0.2,0.1,0.3c22.5,65.6,57.6,123.2,105.4,172.7c0,0,0.1,0.1,0.1,0.1
		c28.2,26.1,58.7,49,91.4,68.8c0.8,0.5,1.3,1.3,1.4,2.3c1.3,25.3,1.8,50.6,1.5,76c0,2.2-2.4,3.5-4.3,2.4"/>
</g>
<g>
	<path class="st2" d="M1284.2,1167.8c-68.1,83.8-80,94.9-160,149c0.2-42.9-10.8-159.6-11.5-202.5c-7.3-25.8-24.5-38.5-51.6-38.2
		c-129.7-1-259.5-1-389.2,0c-17.2,0.6-31.5,7.3-42.7,20.2c-0.7,3.4-2.2,6.4-4.5,9c-2.2,58.3-3.2,267.7-2.5,326.1
		c-27.1-6.2-48.1-4.4-74-14.7c-29.5-12-63.6-19.2-91.9-33.6c0.5-27.5,0-222-1.5-249.4c-33.3-19.9-64.2-43.1-92.8-69.6
		c-47.9-49.6-83.1-107.2-105.5-172.9c-5-21.4-10.2-42.6-15.7-63.6c-7-0.5-14-1-21-1.5c-12-3-20.2-10.2-24.7-21.7
		c-2.8-10.4-5.3-20.9-7.5-31.4c-4-30.5-9.2-60.7-15.7-90.6c-4.7,0.1-8.5-1.7-11.2-5.2c-1.7-16.2-4.4-32.2-8.2-47.9
		c0.7-1.5,1.7-2.7,3-3.7c7.5-1,15-2.3,22.5-3.7c0.2-2.1,0-4.1-0.7-6c-42.9-22.7-64.2-58.1-63.6-106.3c1.2-0.6,2.4-1.1,3.7-1.5
		c9.4,10.5,18.6,21.2,27.7,32.2c29.4,26.4,63.8,36.9,103.3,31.4c51.8-12.9,83.5-45.6,95.1-98c1.5-1,3-2,4.5-3
		c3.6,2.7,6.1,6.2,7.5,10.5c9.7,42.2-0.3,78.6-29.9,109.3c-0.7,1.9-1,3.9-0.7,6c7-0.8,14-1.8,21-3c2.7,0.2,5,1.2,6.7,3
		c3.1,16.1,5.8,32.4,8.2,48.6c-0.1,1.7-0.6,3.2-1.5,4.5c-2.4,0.7-4.9,1-7.5,0.7c5,37,10.7,73.9,17.2,110.8
		c2.8,28.3-9.6,45.2-37.4,50.9c13.5,87.7,54.7,159.3,123.5,214.8c2.9,1.1,5.6,0.9,8.2-0.7c11.2-29.1,31.9-47.8,62.1-56.1
		c64.8-1.9,129.7-2.9,194.6-3c1.5-18.1,2-36.3,1.5-54.6c-26.9,0.3-53.9,0-80.8-0.7c-11.3-0.4-22.2-2.5-32.9-6
		c-36.2-15.3-56.4-42.5-60.6-81.6c-1-103.3-1-206.6,0-309.9c6.7-52.1,36.2-82.1,88.3-89.8c73.7,1.7,147.3,1.9,220.8,0.7c2-3,2-6,0-9
		c-5.2-1.4-10.2-3.4-15-6c-3.1-4.3-7.1-7.1-12-8.2c-2.3-6.1-5-12.1-8.2-18c-5.7-29.3,4.7-50.2,31.4-62.9c10.5-1.9,20.9-1.9,31.4,0
		c7,5.3,14.2,10.2,21.7,15c1.9,4.2,4.1,8.2,6.7,12c10.8,33,0.1,55.7-32.2,68.1c-3,2.3-3.5,5.1-1.5,8.2c73.4,1.9,147,1.9,220.8,0
		c51.4,7.5,80.9,36.9,88.3,88.3c1,104.8,1,209.6,0,314.4c-7.6,42.9-32.3,70.5-74.1,83.1c-33.4,2-66.8,2.8-100.3,2.2
		c-0.2,17.5,0,34.9,0.7,52.4c0.7,0.7,1.5,1.5,2.2,2.2c60.9,0.5,121.7,1,182.6,1.5c49.4,10,76.1,40.2,80.1,90.6
		C1283.5,1101.9,1283.5,1101.9,1284.2,1167.8z"/>
</g>
<g>
	<path class="st1" d="M727.3,541c93.8-0.2,187.6,0,281.4,0.7c58.5,8.5,96.2,41.1,113,98c9.4,54.3-7.3,98.4-50.1,132.5
		c-17.7,11.6-37.2,19-58.4,22.5c-97.3,1-194.6,1-291.9,0c-55.3-10.3-91-42.5-107-96.6c-10.3-68.9,15.4-118.5,77.1-148.9
		C703.2,545.2,715.2,542.5,727.3,541z"/>
</g>
<g>
	<path class="st3" d="M712.3,568c37-3.4,57.5,13,61.4,49.4c-2.1,30.3-18.3,47.3-48.6,50.9c-30.5-3.1-47.7-19.8-51.6-50.1
		C674.9,592.4,687.8,575.7,712.3,568z"/>
</g>
<g>
	<path class="st3" d="M999.7,568c17.3-2.3,32.7,1.7,46.4,12c14.8,16.2,19.1,35.2,12.7,56.9c-10.3,19.1-26.2,29.6-47.9,31.4
		c-20.9-1.7-36.3-11.7-46.4-29.9c-1.3-6.7-2.5-13.5-3.7-20.2c0.7-6.3,1.9-12.6,3.7-18.7c2.8-5.6,5.6-11.1,8.2-16.5
		c5.4-1.7,9.9-4.9,13.5-9.7C990.9,571.7,995.4,569.9,999.7,568z"/>
</g>
<g>
	<path class="st4" d="M733.2,711.7c13.5,7.7,26.9,15.5,40.4,23.2c7.2,0.8,14.2,2.3,21,4.5c5.5,2.5,11,5,16.5,7.5
		c4.5,0.5,9,1,13.5,1.5c1,1,2,2,3,3c10.7,0.1,21.2,1.1,31.4,3c12,1,24,1,35.9,0c10.2-1.9,20.7-2.9,31.4-3c1-1,2-2,3-3
		c5.1-0.3,10.1-1,15-2.2c0.3-0.9,0.8-1.6,1.5-2.2c5.2,0.1,9.7-1.4,13.5-4.5c6.8-2.2,13.7-3.7,21-4.5c9.4-5.8,19.1-11,29.2-15.7
		c1.2,0.2,2.2,0.7,3,1.5c1.2,8.5,1,17-0.7,25.4c-15.4,10.8-32.4,18.1-50.9,21.7c-1,1-2,2-3,3c-4.5,0.5-9,1-13.5,1.5c-1,1-2,2-3,3
		c-34.8,3.4-69.8,4.4-104.8,3c-13.7-1.3-27.2-3.8-40.4-7.5c-5.1-2.4-10.1-4.9-15-7.5c-3.5-0.5-7-1-10.5-1.5
		c-10.3-5.6-20.8-10.8-31.4-15.7c-1.5-1.8-3.3-3.3-5.2-4.5C733.2,731.6,733,721.7,733.2,711.7z"/>
</g>
<g>
	<path class="st1" d="M1113.5,1237.4c0,5.6-3.5,10.7-8.9,12.4c0,0-0.1,0-0.1,0c-156,63-315.7,74.3-479,33.7c-1.8-0.4-2.8-1.4-3-3
		c-0.7-57,0-114,2.1-171c0.1-2.3,0.7-4.6,1.9-6.5c0.8-1.3,1.5-2.7,2-4.1c0.7-1.9,1.7-3.7,3.1-5.1c10.8-11.2,24.2-17,40.3-17.6
		c129.7-1,259.5-1,389.2,0c26.5-0.3,43.5,11.8,51.1,36.4c0.4,1.2,0.5,2.4,0.6,3.6C1113.4,1156.6,1113.7,1197,1113.5,1237.4z"/>
</g>
</svg>
